<svg width="149" height="219" viewBox="0 0 149 219" fill="none" xmlns="http://www.w3.org/2000/svg">
<path d="M8 83C3.58172 83 0 86.5817 0 91V211C0 215.418 3.58172 219 8 219H61.9963C61.3545 217.461 61 215.772 61 214V119C61 111.82 66.8203 106 74 106H81V91C81 86.5817 77.4183 83 73 83H8Z" fill="black"/>
<path d="M68 121C68 116.582 71.5817 113 76 113H141C145.418 113 149 116.582 149 121V211C149 215.418 145.418 219 141 219H76C71.5817 219 68 215.418 68 211V121Z" fill="black"/>
<path d="M34.159 23.5C37.8128 20.2201 38.7714 14.112 39.659 0C39.659 0 42.8953 22.2109 43.1589 23.5C46.9431 42 81.1591 56 43.1589 73.5C60.6878 61.9564 56.5422 52.5889 37.6589 33.5C23.2349 47.6104 21.9981 56.0756 36.1589 72.5C17.6445 58.048 12.5594 42.8896 34.159 23.5Z" fill="#DDC458"/>
<path d="M103.256 53C106.91 49.7201 107.869 43.612 108.756 29.5C108.756 29.5 111.992 51.7109 112.256 53C116.04 71.5 150.256 85.5 112.256 103C129.785 91.4564 125.639 82.0889 106.756 63C92.3321 77.1104 91.0953 85.5756 105.256 102C86.7417 87.548 81.6566 72.3896 103.256 53Z" fill="#DDC458"/>
</svg>
